<mxfile host="app.diagrams.net" modified="2024-02-09T05:39:54.510Z" agent="Mozilla/5.0 (X11; Linux x86_64) AppleWebKit/537.36 (KHTML, like Gecko) Chrome/118.0.5993.789 YaBrowser/23.11.1.789 (corp) Yowser/2.5 Safari/537.36" version="23.1.2" etag="rXTIDi0vO1BdH_F9oTOl" type="github">
  <diagram name="Страница — 1" id="TEPxtHnUgS4Bd_yz-GPr">
    <mxGraphModel>
      <root>
        <mxCell id="0" />
        <mxCell id="1" parent="0" />
      </root>
    </mxGraphModel>
  </diagram>
</mxfile>
